<svg width="644" height="267" viewBox="0 0 644 267" fill="none" xmlns="http://www.w3.org/2000/svg">
<g clip-path="url(#clip0_21_12)">
<g clip-path="url(#clip1_21_12)">
<g clip-path="url(#clip2_21_12)">
<g clip-path="url(#clip3_21_12)">
<path d="M169.581 128.399C171.355 128.399 172.762 129.245 173.799 130.938C174.809 132.658 175.314 134.815 175.314 137.409C175.314 140.549 174.837 143.007 173.881 144.781C172.925 146.556 171.424 148.126 169.376 149.491C161.321 154.816 148.488 163.553 130.877 175.704C125.552 203.964 118.658 226.217 110.194 242.463C101.729 258.709 91.0123 266.832 78.0427 266.832C71.0801 266.832 65.4144 264.688 61.0457 260.402C56.677 256.088 54.4927 250.449 54.4927 243.487C54.4927 237.07 55.9262 230.585 58.7931 224.032C61.6601 217.479 67.0254 209.902 74.889 201.301C82.7254 192.7 93.811 182.871 108.146 171.813L108.76 167.922C97.9749 172.427 87.3944 174.68 77.0188 174.68C61.7283 174.68 48.281 171.703 36.6766 165.751C25.0723 159.826 16.0618 151.403 9.64529 140.481C3.22877 129.559 0.0205078 116.863 0.0205078 102.391C0.0205078 82.1861 3.84312 64.3291 11.4883 48.8202C19.1336 33.3386 29.6867 21.3247 43.1477 12.7784C56.5815 4.25949 71.6262 0 88.2818 0C104.255 0 116.228 3.7134 124.201 11.1402C132.201 18.5943 136.201 28.4648 136.201 40.7518C136.201 48.8065 134.74 55.2504 131.819 60.0832C128.87 64.9434 124.665 67.3735 119.204 67.3735C115.518 67.3735 112.555 66.4861 110.316 64.7113C108.05 62.9365 106.917 60.4792 106.917 57.3392C106.917 55.9739 107.19 53.6531 107.736 50.3765C108.555 46.5539 108.965 43.5505 108.965 41.3661C108.965 35.6322 107.231 31.1952 103.763 28.0552C100.268 24.9152 94.4253 23.3452 86.234 23.3452C76.2679 23.3452 67.0254 26.2122 58.5064 31.9461C49.9602 37.68 43.0931 46.2399 37.9053 57.6258C32.7175 69.0391 30.1236 82.7322 30.1236 98.7052C30.1236 115.088 34.6015 127.743 43.5573 136.672C52.4858 145.628 65.4144 150.106 82.3431 150.106C91.7631 150.106 101.593 147.99 111.832 143.757L114.699 118.774H93.811C89.9884 118.774 87.0531 117.846 85.0053 115.989C82.9575 114.16 81.9336 111.129 81.9336 106.897C81.9336 103.074 82.9575 100.07 85.0053 97.8861C87.0531 95.7018 89.7836 94.6096 93.1966 94.6096H131.491C134.494 94.6096 136.993 95.6062 138.986 97.5994C140.952 99.5653 141.73 102.391 141.321 106.077C140.911 110.446 139.546 120.344 137.225 135.771L134.972 151.334C145.894 143.143 155.86 136.044 164.871 130.037C166.645 128.945 168.215 128.399 169.581 128.399ZM80.2953 246.968C83.8449 246.968 87.7357 242.94 91.9679 234.886C96.2001 226.831 100.159 213.861 103.845 195.977C93.4697 204.851 86.0019 212.878 81.4421 220.059C76.855 227.213 74.5614 233.52 74.5614 238.981C74.5614 244.306 76.4727 246.968 80.2953 246.968ZM175.11 174.68C169.922 174.68 166.263 171.949 164.133 166.488C162.031 161.027 160.98 152.29 160.98 140.276C160.98 122.528 163.505 105.668 168.557 89.6948C169.785 85.7357 171.792 82.8278 174.577 80.9711C177.39 79.1417 181.321 78.227 186.373 78.227C189.103 78.227 191.014 78.5683 192.107 79.2509C193.199 79.9335 193.745 81.2305 193.745 83.1418C193.745 85.3261 192.721 90.2409 190.673 97.8861C189.308 103.347 188.216 108.125 187.397 112.221C186.578 116.317 185.895 121.368 185.349 127.375C189.854 115.634 194.905 106.077 200.503 98.7052C206.1 91.3331 211.588 86.077 216.967 82.937C222.374 79.797 227.329 78.227 231.834 78.227C240.708 78.227 245.145 82.6639 245.145 91.5379C245.145 93.3126 244.531 97.6131 243.302 104.439C242.21 109.9 241.664 113.313 241.664 114.678C241.664 119.457 243.371 121.846 246.784 121.846C250.606 121.846 255.521 118.842 261.528 112.835C263.303 111.06 265.146 110.173 267.057 110.173C268.832 110.173 270.224 110.951 271.235 112.508C272.272 114.091 272.791 116.18 272.791 118.774C272.791 123.825 271.426 127.784 268.695 130.651C264.873 134.61 260.395 137.983 255.262 140.768C250.156 143.58 244.736 144.986 239.002 144.986C231.766 144.986 226.264 143.143 222.496 139.457C218.756 135.771 216.885 130.788 216.885 124.508C216.885 122.46 217.09 120.412 217.5 118.364C217.773 115.634 217.909 113.791 217.909 112.835C217.909 110.651 217.158 109.559 215.657 109.559C213.609 109.559 210.906 111.839 207.547 116.398C204.216 120.986 200.912 127.034 197.636 134.542C194.359 142.051 191.697 149.969 189.649 158.297C188.148 164.714 186.4 169.041 184.407 171.28C182.441 173.546 179.342 174.68 175.11 174.68ZM358.185 110.787C359.96 110.787 361.325 111.675 362.281 113.45C363.237 115.224 363.715 117.477 363.715 120.207C363.715 126.76 361.735 130.651 357.776 131.88C349.585 134.747 340.574 136.385 330.744 136.795C328.151 148.263 323.031 157.451 315.386 164.359C307.741 171.239 299.071 174.68 289.378 174.68C281.187 174.68 274.184 172.7 268.368 168.741C262.579 164.782 258.183 159.526 255.18 152.973C252.176 146.42 250.674 139.32 250.674 131.675C250.674 121.3 252.654 112.043 256.613 103.907C260.572 95.7973 266.033 89.4491 272.996 84.8619C279.958 80.3021 287.672 78.0222 296.136 78.0222C306.512 78.0222 314.867 81.5991 321.202 88.7528C327.564 95.9339 331.291 104.78 332.383 115.293C338.799 114.883 346.444 113.518 355.318 111.197C356.411 110.924 357.366 110.787 358.185 110.787ZM291.017 152.973C295.385 152.973 299.167 151.198 302.362 147.648C305.584 144.099 307.741 138.979 308.833 132.29C304.601 129.423 301.351 125.668 299.085 121.027C296.846 116.385 295.727 111.47 295.727 106.282C295.727 104.098 295.931 101.914 296.341 99.7292H295.317C289.856 99.7292 285.31 102.35 281.679 107.593C278.074 112.863 276.272 120.276 276.272 129.832C276.272 137.341 277.733 143.075 280.655 147.034C283.604 150.993 287.058 152.973 291.017 152.973ZM450.501 110.787C452.276 110.787 453.641 111.675 454.597 113.45C455.553 115.224 456.031 117.477 456.031 120.207C456.031 126.76 454.051 130.651 450.092 131.88C441.901 134.747 432.89 136.385 423.061 136.795C420.467 148.263 415.347 157.451 407.702 164.359C400.057 171.239 391.387 174.68 381.694 174.68C373.503 174.68 366.513 172.7 360.725 168.741C354.909 164.782 350.499 159.526 347.496 152.973C344.492 146.42 342.991 139.32 342.991 131.675C342.991 121.3 344.97 112.043 348.929 103.907C352.888 95.7973 358.349 89.4491 365.312 84.8619C372.274 80.3021 379.988 78.0222 388.452 78.0222C398.828 78.0222 407.197 81.5991 413.559 88.7528C419.893 95.9339 423.607 104.78 424.699 115.293C431.115 114.883 438.761 113.518 447.634 111.197C448.727 110.924 449.682 110.787 450.501 110.787ZM383.333 152.973C387.701 152.973 391.497 151.198 394.719 147.648C397.913 144.099 400.057 138.979 401.149 132.29C396.917 129.423 393.681 125.668 391.442 121.027C389.176 116.385 388.043 111.47 388.043 106.282C388.043 104.098 388.247 101.914 388.657 99.7292H387.633C382.172 99.7292 377.64 102.35 374.036 107.593C370.404 112.863 368.588 120.276 368.588 129.832C368.588 137.341 370.063 143.075 373.012 147.034C375.933 150.993 379.374 152.973 383.333 152.973ZM541.834 111.402C542.244 111.265 542.927 111.197 543.882 111.197C545.93 111.197 547.5 111.88 548.592 113.245C549.684 114.61 550.231 116.453 550.231 118.774C550.231 123.006 549.411 126.31 547.773 128.685C546.135 131.088 543.678 132.836 540.401 133.928C534.121 135.976 527.431 137 520.332 137C514.325 137 508.66 136.18 503.335 134.542C499.376 140.959 495.007 147.58 490.229 154.406C484.768 162.188 480.058 167.512 476.099 170.379C472.14 173.246 467.635 174.68 462.584 174.68C456.986 174.68 452.59 172.495 449.396 168.127C446.174 163.758 444.153 156.864 443.334 147.444C441.696 128.33 440.877 111.607 440.877 97.2718V90.1044C441.013 85.5992 442.242 82.4592 444.563 80.6844C446.884 78.9096 450.365 78.0222 455.007 78.0222C458.556 78.0222 461.191 78.8004 462.911 80.3567C464.604 81.9404 465.451 84.5752 465.451 88.2613C465.451 103.961 466.406 124.371 468.317 149.491C476.509 137.341 482.652 127.648 486.748 120.412C484.7 116.453 483.676 111.743 483.676 106.282C483.676 101.64 484.7 97.1352 486.748 92.7665C488.796 88.3979 491.594 84.8483 495.144 82.1178C498.694 79.3874 502.721 78.0222 507.226 78.0222C511.185 78.0222 514.394 79.4147 516.851 82.1998C519.308 85.0121 520.537 89.0805 520.537 94.4048C520.537 100.548 518.899 107.579 515.622 115.497C520.81 115.224 527.704 114.2 536.305 112.426L541.834 111.402ZM637.263 128.399C639.038 128.399 640.43 129.245 641.441 130.938C642.478 132.658 642.997 134.815 642.997 137.409C642.997 140.549 642.519 143.007 641.564 144.781C640.608 146.556 639.106 148.126 637.058 149.491L597.74 175.908C592.552 204.168 585.754 226.38 577.344 242.545C568.961 258.736 558.285 266.832 545.316 266.832C538.353 266.832 532.688 264.688 528.319 260.402C523.95 256.088 521.766 250.449 521.766 243.487C521.766 237.07 523.227 230.517 526.148 223.827C529.097 217.138 534.558 209.465 542.531 200.81C550.531 192.127 561.835 182.188 576.443 170.994L577.057 166.284C578.013 161.232 579.105 153.997 580.334 144.577C577.603 154.406 573.781 161.874 568.866 166.98C563.951 172.113 558.763 174.68 553.302 174.68C547.159 174.68 542.135 171.84 538.23 166.161C534.353 160.509 532.414 153.45 532.414 144.986C532.414 134.747 533.097 125.354 534.462 116.808C535.828 108.289 538.08 99.2513 541.22 89.6948C542.585 85.5992 544.497 82.6639 546.954 80.8892C549.411 79.1144 553.302 78.227 558.627 78.227C561.63 78.227 563.705 78.7048 564.852 79.6605C566.026 80.6161 566.613 82.0496 566.613 83.9609C566.613 85.0531 565.862 88.7392 564.361 95.0192C562.995 100.07 561.903 104.644 561.084 108.74C559.992 114.337 559.036 119.689 558.217 124.795C557.398 129.928 556.988 134.133 556.988 137.409C556.988 142.597 558.422 145.191 561.289 145.191C563.337 145.191 565.89 143.143 568.948 139.047C572.033 134.952 575.31 128.74 578.777 120.412C582.272 112.084 585.658 101.845 588.934 89.6948C590.027 85.5992 591.692 82.6639 593.931 80.8892C596.197 79.1144 599.583 78.227 604.088 78.227C607.228 78.227 609.413 78.6365 610.641 79.4557C611.87 80.2748 612.485 81.64 612.485 83.5513C612.485 86.9644 610.71 98.7052 607.16 118.774L601.836 151.744C612.348 143.826 622.587 136.59 632.553 130.037C634.328 128.945 635.898 128.399 637.263 128.399ZM547.568 246.968C550.981 246.968 554.804 243.009 559.036 235.09C563.268 227.172 567.501 213.998 571.733 195.567C561.221 204.441 553.603 212.537 548.879 219.855C544.183 227.145 541.834 233.52 541.834 238.981C541.834 241.302 542.271 243.214 543.145 244.715C544.046 246.217 545.521 246.968 547.568 246.968Z" fill="#42C83C"/>
</g>
</g>
</g>
</g>
<defs>
<clipPath id="clip0_21_12">
<rect width="643.018" height="266.832" fill="white"/>
</clipPath>
<clipPath id="clip1_21_12">
<rect width="643.018" height="266.832" fill="white"/>
</clipPath>
<clipPath id="clip2_21_12">
<rect width="643.018" height="266.832" fill="white"/>
</clipPath>
<clipPath id="clip3_21_12">
<rect width="643.018" height="266.832" fill="white"/>
</clipPath>
</defs>
</svg>
