<svg width="81" height="34" viewBox="0 0 81 34" fill="none" xmlns="http://www.w3.org/2000/svg">
<g clip-path="url(#clip0_23_2)">
<g clip-path="url(#clip1_23_2)">
<g clip-path="url(#clip2_23_2)">
<path d="M21.3622 16.1635C21.5857 16.1635 21.7629 16.2701 21.8936 16.4832C22.0208 16.6997 22.0845 16.9713 22.0845 17.2978C22.0845 17.6931 22.0243 18.0024 21.9039 18.2258C21.7835 18.4493 21.5943 18.6469 21.3364 18.8188C20.3217 19.489 18.7052 20.5889 16.4867 22.1185C15.816 25.676 14.9475 28.4773 13.8813 30.5225C12.815 32.5676 11.465 33.5902 9.83127 33.5902C8.9542 33.5902 8.24051 33.3204 7.69019 32.7807C7.13987 32.2377 6.86471 31.5279 6.86471 30.6514C6.86471 29.8436 7.04529 29.0273 7.40643 28.2024C7.76758 27.3774 8.44344 26.4236 9.43401 25.3409C10.4211 24.2582 11.8176 23.0208 13.6233 21.6287L13.7007 21.1389C12.3421 21.706 11.0093 21.9896 9.70229 21.9896C7.77618 21.9896 6.08223 21.6149 4.62045 20.8656C3.15866 20.1197 2.02363 19.0594 1.21535 17.6845C0.40707 16.3096 0.00292969 14.7113 0.00292969 12.8896C0.00292969 10.346 0.484458 8.09808 1.44752 6.14574C2.41057 4.19684 3.73994 2.68447 5.43561 1.60862C7.12783 0.536207 9.02299 0 11.1211 0C13.1332 0 14.6414 0.467462 15.6457 1.40239C16.6535 2.34075 17.1574 3.5833 17.1574 5.13005C17.1574 6.14403 16.9734 6.95521 16.6054 7.5636C16.2339 8.17542 15.7042 8.48133 15.0163 8.48133C14.552 8.48133 14.1788 8.36962 13.8968 8.1462C13.6113 7.92279 13.4685 7.61344 13.4685 7.21816C13.4685 7.0463 13.5029 6.75413 13.5717 6.34167C13.6749 5.86046 13.7265 5.48236 13.7265 5.20738C13.7265 4.48557 13.5081 3.92702 13.0713 3.53174C12.631 3.13646 11.895 2.93882 10.8631 2.93882C9.60771 2.93882 8.44344 3.29973 7.37032 4.02155C6.29376 4.74336 5.42873 5.82093 4.77522 7.25425C4.12172 8.691 3.79497 10.4148 3.79497 12.4255C3.79497 14.4879 4.35904 16.081 5.4872 17.205C6.61191 18.3324 8.24051 18.8961 10.373 18.8961C11.5596 18.8961 12.7978 18.6297 14.0876 18.0969L14.4488 14.9519H11.8176C11.3361 14.9519 10.9663 14.835 10.7083 14.6013C10.4504 14.371 10.3214 13.9895 10.3214 13.4567C10.3214 12.9755 10.4504 12.5974 10.7083 12.3224C10.9663 12.0474 11.3103 11.91 11.7402 11.91H16.5641C16.9424 11.91 17.2571 12.0354 17.5082 12.2863C17.7559 12.5338 17.8539 12.8896 17.8023 13.3536C17.7507 13.9035 17.5787 15.1495 17.2864 17.0916L17.0026 19.0508C18.3784 18.0196 19.6338 17.1259 20.7689 16.3697C20.9924 16.2323 21.1902 16.1635 21.3622 16.1635ZM10.115 31.0896C10.5622 31.0896 11.0523 30.5826 11.5854 29.5687C12.1185 28.5547 12.6173 26.922 13.0816 24.6706C11.7746 25.7877 10.8339 26.7983 10.2595 27.7022C9.68166 28.6028 9.39274 29.3968 9.39274 30.0842C9.39274 30.7545 9.6335 31.0896 10.115 31.0896ZM22.0587 21.9896C21.4052 21.9896 20.9443 21.6459 20.676 20.9584C20.4111 20.271 20.2787 19.1711 20.2787 17.6587C20.2787 15.4245 20.5969 13.302 21.2332 11.2913C21.388 10.7929 21.6408 10.4268 21.9916 10.1931C22.3459 9.96277 22.8411 9.84763 23.4775 9.84763C23.8214 9.84763 24.0622 9.89059 24.1997 9.97652C24.3373 10.0625 24.4061 10.2257 24.4061 10.4663C24.4061 10.7413 24.2771 11.36 24.0192 12.3224C23.8472 13.0099 23.7096 13.6114 23.6064 14.127C23.5033 14.6425 23.4173 15.2784 23.3485 16.0346C23.916 14.5566 24.5523 13.3536 25.2574 12.4255C25.9625 11.4975 26.6538 10.8358 27.3314 10.4405C28.0124 10.0453 28.6367 9.84763 29.2042 9.84763C30.322 9.84763 30.881 10.4062 30.881 11.5233C30.881 11.7467 30.8036 12.2881 30.6488 13.1474C30.5112 13.8348 30.4424 14.2645 30.4424 14.4363C30.4424 15.0378 30.6574 15.3386 31.0873 15.3386C31.5689 15.3386 32.188 14.9605 32.9447 14.2043C33.1682 13.9809 33.4004 13.8692 33.6412 13.8692C33.8647 13.8692 34.0401 13.9671 34.1674 14.1631C34.2981 14.3624 34.3634 14.6254 34.3634 14.9519C34.3634 15.5878 34.1915 16.0862 33.8475 16.4471C33.366 16.9455 32.8019 17.37 32.1553 17.7206C31.5121 18.0746 30.8294 18.2516 30.1071 18.2516C29.1956 18.2516 28.5026 18.0196 28.0279 17.5556C27.5567 17.0916 27.3211 16.4643 27.3211 15.6737C27.3211 15.4159 27.3469 15.1581 27.3985 14.9003C27.4329 14.5566 27.4501 14.3246 27.4501 14.2043C27.4501 13.9293 27.3555 13.7918 27.1663 13.7918C26.9083 13.7918 26.5678 14.0788 26.1448 14.6529C25.7252 15.2303 25.309 15.9917 24.8962 16.9369C24.4835 17.8821 24.1482 18.8789 23.8902 19.9273C23.701 20.735 23.4809 21.2798 23.2298 21.5617C22.9822 21.8469 22.5918 21.9896 22.0587 21.9896ZM45.1205 13.9465C45.344 13.9465 45.516 14.0582 45.6364 14.2816C45.7568 14.5051 45.8169 14.7886 45.8169 15.1323C45.8169 15.9573 45.5676 16.4471 45.0689 16.6018C44.037 16.9627 42.902 17.1689 41.6638 17.2205C41.337 18.6641 40.6921 19.8207 39.729 20.6903C38.766 21.5565 37.674 21.9896 36.4529 21.9896C35.4211 21.9896 34.5389 21.7404 33.8062 21.242C33.0771 20.7436 32.5233 20.0819 32.145 19.257C31.7666 18.4321 31.5775 17.5384 31.5775 16.576C31.5775 15.2698 31.8268 14.1046 32.3255 13.0803C32.8243 12.0595 33.5122 11.2603 34.3892 10.6829C35.2663 10.1089 36.238 9.82185 37.3042 9.82185C38.6112 9.82185 39.6637 10.2721 40.4617 11.1727C41.2631 12.0767 41.7326 13.1903 41.8701 14.5136C42.6784 14.4621 43.6415 14.2902 44.7593 13.9981C44.8969 13.9637 45.0173 13.9465 45.1205 13.9465ZM36.6593 19.257C37.2096 19.257 37.686 19.0336 38.0884 18.5868C38.4943 18.1399 38.766 17.4954 38.9036 16.6533C38.3705 16.2924 37.9612 15.8198 37.6757 15.2355C37.3936 14.6511 37.2526 14.0324 37.2526 13.3794C37.2526 13.1044 37.2784 12.8294 37.33 12.5544H37.201C36.5131 12.5544 35.9405 12.8844 35.483 13.5444C35.029 14.2077 34.802 15.1409 34.802 16.344C34.802 17.2892 34.986 18.011 35.354 18.5094C35.7255 19.0078 36.1606 19.257 36.6593 19.257ZM56.7494 13.9465C56.9729 13.9465 57.1449 14.0582 57.2653 14.2816C57.3857 14.5051 57.4459 14.7886 57.4459 15.1323C57.4459 15.9573 57.1965 16.4471 56.6978 16.6018C55.6659 16.9627 54.5309 17.1689 53.2927 17.2205C52.9659 18.6641 52.321 19.8207 51.358 20.6903C50.3949 21.5565 49.3029 21.9896 48.0819 21.9896C47.05 21.9896 46.1695 21.7404 45.4403 21.242C44.7077 20.7436 44.1522 20.0819 43.7739 19.257C43.3955 18.4321 43.2064 17.5384 43.2064 16.576C43.2064 15.2698 43.4557 14.1046 43.9545 13.0803C44.4532 12.0595 45.1411 11.2603 46.0182 10.6829C46.8952 10.1089 47.8669 9.82185 48.9331 9.82185C50.2401 9.82185 51.2943 10.2721 52.0957 11.1727C52.8937 12.0767 53.3615 13.1903 53.4991 14.5136C54.3073 14.4621 55.2704 14.2902 56.3882 13.9981C56.5258 13.9637 56.6462 13.9465 56.7494 13.9465ZM48.2882 19.257C48.8385 19.257 49.3166 19.0336 49.7225 18.5868C50.1249 18.1399 50.3949 17.4954 50.5325 16.6533C49.9994 16.2924 49.5918 15.8198 49.3097 15.2355C49.0243 14.6511 48.8815 14.0324 48.8815 13.3794C48.8815 13.1044 48.9073 12.8294 48.9589 12.5544H48.8299C48.142 12.5544 47.5711 12.8844 47.1171 13.5444C46.6596 14.2077 46.4309 15.1409 46.4309 16.344C46.4309 17.2892 46.6166 18.011 46.9881 18.5094C47.3561 19.0078 47.7895 19.257 48.2882 19.257ZM68.2545 14.0238C68.3061 14.0067 68.392 13.9981 68.5124 13.9981C68.7704 13.9981 68.9682 14.084 69.1057 14.2559C69.2433 14.4277 69.3121 14.6597 69.3121 14.9519C69.3121 15.4847 69.2089 15.9006 69.0026 16.1996C68.7962 16.5021 68.4866 16.7221 68.0739 16.8595C67.2828 17.1173 66.4401 17.2462 65.5459 17.2462C64.7892 17.2462 64.0755 17.1431 63.4048 16.9369C62.9061 17.7446 62.3557 18.5782 61.7538 19.4375C61.0659 20.4171 60.4726 21.0873 59.9739 21.4482C59.4752 21.8091 58.9077 21.9896 58.2713 21.9896C57.5662 21.9896 57.0125 21.7146 56.6101 21.1647C56.2042 20.6147 55.9497 19.7468 55.8465 18.561C55.6401 16.1549 55.5369 14.0496 55.5369 12.2451V11.3428C55.5541 10.7757 55.7089 10.3804 56.0013 10.157C56.2936 9.93356 56.7322 9.82185 57.3169 9.82185C57.764 9.82185 58.0959 9.91981 58.3126 10.1157C58.5259 10.3151 58.6325 10.6468 58.6325 11.1108C58.6325 13.0872 58.7529 15.6565 58.9936 18.8188C60.0255 17.2892 60.7994 16.069 61.3153 15.1581C61.0573 14.6597 60.9284 14.0668 60.9284 13.3794C60.9284 12.795 61.0573 12.2279 61.3153 11.6779C61.5733 11.128 61.9258 10.6812 62.3729 10.3374C62.8201 9.99371 63.3274 9.82185 63.8949 9.82185C64.3936 9.82185 64.7978 9.99715 65.1073 10.3477C65.4169 10.7018 65.5717 11.2139 65.5717 11.8842C65.5717 12.6576 65.3653 13.5426 64.9526 14.5394C65.6061 14.5051 66.4745 14.3762 67.558 14.1527L68.2545 14.0238ZM80.2755 16.1635C80.4991 16.1635 80.6745 16.2701 80.8017 16.4832C80.9324 16.6997 80.9978 16.9713 80.9978 17.2978C80.9978 17.6931 80.9376 18.0024 80.8172 18.2258C80.6968 18.4493 80.5077 18.6469 80.2497 18.8188L75.2968 22.1443C74.6433 25.7018 73.7869 28.498 72.7275 30.5328C71.6716 32.5711 70.3268 33.5902 68.693 33.5902C67.8159 33.5902 67.1022 33.3204 66.5519 32.7807C66.0016 32.2377 65.7264 31.5279 65.7264 30.6514C65.7264 29.8436 65.9105 29.0187 66.2785 28.1766C66.6499 27.3345 67.3378 26.3686 68.3422 25.279C69.3499 24.186 70.7739 22.9348 72.614 21.5256L72.6914 20.9327C72.8118 20.2968 72.9494 19.3859 73.1041 18.2001C72.7602 19.4375 72.2787 20.3775 71.6596 21.0203C71.0405 21.6665 70.3869 21.9896 69.699 21.9896C68.9252 21.9896 68.2923 21.6321 67.8005 20.9172C67.312 20.2057 67.0678 19.3172 67.0678 18.2516C67.0678 16.9627 67.1538 15.7803 67.3258 14.7044C67.4978 13.632 67.7815 12.4943 68.1771 11.2913C68.3491 10.7757 68.5898 10.4062 68.8994 10.1828C69.2089 9.95934 69.6991 9.84763 70.3698 9.84763C70.7481 9.84763 71.0095 9.90778 71.154 10.0281C71.3019 10.1484 71.3758 10.3288 71.3758 10.5694C71.3758 10.7069 71.2812 11.171 71.092 11.9615C70.9201 12.5974 70.7825 13.1731 70.6793 13.6887C70.5417 14.3933 70.4213 15.067 70.3182 15.7098C70.215 16.356 70.1634 16.8853 70.1634 17.2978C70.1634 17.9509 70.344 18.2774 70.7051 18.2774C70.9631 18.2774 71.2847 18.0196 71.6699 17.504C72.0585 16.9884 72.4713 16.2065 72.9081 15.1581C73.3483 14.1098 73.7749 12.8208 74.1876 11.2913C74.3252 10.7757 74.535 10.4062 74.817 10.1828C75.1025 9.95934 75.529 9.84763 76.0965 9.84763C76.492 9.84763 76.7672 9.89918 76.922 10.0023C77.0768 10.1054 77.1542 10.2773 77.1542 10.5179C77.1542 10.9475 76.9306 12.4255 76.4834 14.9519L75.8127 19.1023C77.137 18.1055 78.4268 17.1947 79.6822 16.3697C79.9057 16.2323 80.1035 16.1635 80.2755 16.1635ZM68.9768 31.0896C69.4067 31.0896 69.8882 30.5912 70.4213 29.5944C70.9545 28.5976 71.4876 26.9392 72.0207 24.6191C70.6965 25.7362 69.7369 26.7553 69.1419 27.6765C68.5503 28.5942 68.2545 29.3968 68.2545 30.0842C68.2545 30.3764 68.3095 30.617 68.4196 30.8061C68.5331 30.9951 68.7188 31.0896 68.9768 31.0896Z" fill="#42C83C"/>
</g>
</g>
</g>
<defs>
<clipPath id="clip0_23_2">
<rect width="81" height="33.5902" fill="white"/>
</clipPath>
<clipPath id="clip1_23_2">
<rect width="81" height="33.5902" fill="white"/>
</clipPath>
<clipPath id="clip2_23_2">
<rect width="81" height="33.5902" fill="white"/>
</clipPath>
</defs>
</svg>
